<?xml version="1.0" encoding="iso-8859-1"?>
<!-- Generator: Adobe Illustrator 18.0.0, SVG Export Plug-In . SVG Version: 6.00 Build 0)  -->
<!DOCTYPE svg PUBLIC "-//W3C//DTD SVG 1.1//EN" "http://www.w3.org/Graphics/SVG/1.1/DTD/svg11.dtd">
<!-- License: CC0. Made by SVG Repo: https://www.svgrepo.com/svg/17178/wedding-invitation -->
<svg version="1.1" id="Capa_1" xmlns="http://www.w3.org/2000/svg" xmlns:xlink="http://www.w3.org/1999/xlink" x="0px" y="0px"
	 viewBox="0 0 124.493 124.493" style="enable-background:new 0 0 124.493 124.493;" xml:space="preserve">
<g>
	<polygon style="fill:#CEE5F2;" points="62.247,0 53.543,6.358 108.857,45.315 119.762,45.315 119.762,42.017 	"/>
	<polygon style="fill:#CEE5F2;" points="34.251,20.451 4.731,42.017 4.731,45.315 16.739,45.315 	"/>
	<polygon style="fill:#63757C;" points="116.966,51.027 119.762,48.802 119.762,45.315 108.857,45.315 	"/>
	<polygon style="fill:#63757C;" points="16.739,45.315 4.731,45.315 4.731,48.802 10.852,53.674 	"/>
	<path style="fill:#FFC2C8;" d="M51.527,20.756c0.577-3.145-2.118-7.351-4.976-2.851c-0.953,1.5-1.152,3.449-1.151,5.186
		c0.001,2.109,0.361,4.287,0.975,6.317c3.84-0.209,8.631-1.281,10.713-4.706c1.597-3.417-1.31-5.461-4.514-3.604
		C52.3,21.257,51.43,21.279,51.527,20.756z"/>
	<path style="fill:#FFC2C8;" d="M64.73,51.041c5.328-0.298,11.959-1.789,14.841-6.531c2.203-4.716-1.77-7.562-6.208-4.989
		c-0.409,0.237-1.714,0.271-1.57-0.514c0.792-4.31-2.85-10.197-6.81-3.984c-1.332,2.089-1.605,4.815-1.604,7.236
		C63.38,45.19,63.881,48.218,64.73,51.041z"/>
	<path style="fill:#FFC2C8;" d="M76.302,66.296c-0.273,0.158-1.144,0.18-1.047-0.343c0.577-3.145-2.118-7.351-4.976-2.851
		c-0.953,1.5-1.152,3.448-1.151,5.186c0.002,2.109,0.362,4.287,0.975,6.317c3.84-0.209,8.631-1.281,10.713-4.706
		C82.413,66.482,79.506,64.438,76.302,66.296z"/>
	<path style="fill:#FFC2C8;" d="M31.201,46.308c-0.215,3.588,0.812,6.657,1.294,10.106c0.014,0.098,0.039,0.177,0.065,0.247
		c0.16-0.018,0.313-0.042,0.373-0.06c1.262-0.377,2.818-0.302,4.121-0.558c4.166-0.82,8.693-2.363,11.012-6.178
		c2.341-5.011-2.069-7.916-6.71-5.227c-0.273,0.158-1.143,0.181-1.047-0.343c0.748-4.071-2.334-10.614-7.077-4.598
		C31.775,41.548,31.337,44.014,31.201,46.308z"/>
	<path style="fill:#FFC2C8;" d="M10.852,53.674L50.7,85.39l11.547-9.822l11.547,9.822l43.173-34.362l-8.109-5.712L53.543,6.358
		l-6.261-4.409L34.251,20.451L16.739,45.315L10.852,53.674z M82.195,70.041c-2.514,4.137-8.253,5.451-12.792,5.606
		c-0.244,0.008-0.566-0.04-0.653-0.313c-1.236-3.877-2.033-9.343,0.476-12.871c2.959-4.159,7.842-2.085,7.592,2.509
		C80.34,63.733,84.237,65.671,82.195,70.041z M103.969,56.443c-2.515,4.137-8.253,5.45-12.792,5.606
		c-0.245,0.009-0.567-0.04-0.654-0.314c-1.236-3.876-2.033-9.342,0.477-12.87c2.958-4.16,7.842-2.086,7.592,2.508
		C102.115,50.136,106.01,52.073,103.969,56.443z M63.369,34.115c4.142-5.833,11.063-3.026,10.77,3.418
		c4.883-1.648,10.233,1.012,7.587,6.989c-0.016,0.063-0.041,0.128-0.086,0.201c-0.028,0.062-0.07,0.117-0.116,0.17
		c-3.586,5.671-11.532,7.495-17.843,7.711c-0.367,0.013-0.851-0.06-0.981-0.47C60.967,46.703,59.859,39.058,63.369,34.115z
		 M58.467,24.845c-2.515,4.137-8.254,5.451-12.793,5.606c-0.244,0.008-0.566-0.04-0.653-0.313
		c-1.236-3.876-2.033-9.342,0.476-12.871c2.959-4.16,7.842-2.085,7.592,2.508C56.612,18.537,60.508,20.474,58.467,24.845z
		 M41.89,43.266c4.863-1.966,10.384,0.688,7.555,6.743c-3.45,5.676-11.358,7.449-17.579,7.662c-0.245,0.009-0.567-0.04-0.654-0.313
		c-1.714-5.373-2.848-12.998,0.652-17.886C35.964,33.744,42.415,36.983,41.89,43.266z"/>
	<path style="fill:#FFC2C8;" d="M98.076,52.697c-0.272,0.158-1.143,0.181-1.047-0.343c0.578-3.144-2.117-7.351-4.976-2.851
		c-0.952,1.5-1.151,3.449-1.15,5.187c0.001,2.109,0.361,4.287,0.975,6.317c3.84-0.209,8.631-1.281,10.713-4.707
		C104.186,52.885,101.281,50.84,98.076,52.697z"/>
	<path style="fill:#CA2227;" d="M62.699,52.134c0.131,0.41,0.614,0.482,0.981,0.47c6.31-0.216,14.257-2.04,17.843-7.711
		c0.046-0.053,0.088-0.108,0.116-0.17c0.045-0.073,0.07-0.139,0.086-0.201c2.646-5.977-2.704-8.637-7.587-6.989
		c0.294-6.444-6.628-9.251-10.77-3.418C59.859,39.058,60.967,46.703,62.699,52.134z M64.983,35.023
		c3.96-6.213,7.602-0.326,6.81,3.984c-0.144,0.784,1.161,0.751,1.57,0.514c4.438-2.572,8.411,0.273,6.208,4.989
		c-2.882,4.742-9.513,6.233-14.841,6.531c-0.849-2.823-1.35-5.851-1.352-8.782C63.377,39.838,63.651,37.112,64.983,35.023z"/>
	<path style="fill:#CA2227;" d="M31.211,57.357c0.087,0.273,0.409,0.322,0.654,0.313c6.221-0.213,14.129-1.986,17.579-7.662
		c2.829-6.056-2.691-8.709-7.555-6.743c0.525-6.283-5.926-9.521-10.026-3.794C28.364,44.359,29.498,51.984,31.211,57.357z
		 M33.232,39.699c4.743-6.016,7.825,0.526,7.077,4.598c-0.096,0.524,0.773,0.501,1.047,0.343c4.641-2.689,9.051,0.216,6.71,5.227
		c-2.318,3.814-6.846,5.357-11.012,6.178c-1.303,0.256-2.859,0.181-4.121,0.558c-0.061,0.018-0.213,0.042-0.373,0.06
		c-0.026-0.07-0.052-0.149-0.065-0.247c-0.481-3.449-1.509-6.519-1.294-10.106C31.337,44.014,31.775,41.548,33.232,39.699z"/>
	<path style="fill:#CA2227;" d="M76.817,64.972c0.25-4.594-4.633-6.668-7.592-2.509c-2.509,3.528-1.712,8.994-0.476,12.871
		c0.087,0.273,0.409,0.321,0.653,0.313c4.539-0.155,10.278-1.47,12.792-5.606C84.237,65.671,80.34,63.733,76.817,64.972z
		 M70.103,74.605c-0.612-2.03-0.973-4.208-0.975-6.317c-0.001-1.737,0.198-3.686,1.151-5.186c2.857-4.5,5.553-0.294,4.976,2.851
		c-0.097,0.522,0.773,0.501,1.047,0.343c3.204-1.857,6.11,0.187,4.514,3.604C78.734,73.324,73.943,74.396,70.103,74.605z"/>
	<path style="fill:#CA2227;" d="M45.497,17.267c-2.509,3.528-1.712,8.994-0.476,12.871c0.087,0.273,0.409,0.322,0.653,0.313
		c4.539-0.155,10.278-1.469,12.793-5.606c2.041-4.371-1.855-6.308-5.379-5.07C53.338,15.182,48.456,13.107,45.497,17.267z
		 M57.087,24.703c-2.082,3.425-6.873,4.497-10.713,4.706c-0.613-2.03-0.974-4.208-0.975-6.317c-0.001-1.737,0.198-3.686,1.151-5.186
		c2.857-4.5,5.553-0.294,4.976,2.851c-0.097,0.523,0.773,0.501,1.047,0.343C55.778,19.242,58.684,21.286,57.087,24.703z"/>
	<path style="fill:#CA2227;" d="M98.591,51.373c0.25-4.594-4.634-6.668-7.592-2.508c-2.51,3.528-1.713,8.994-0.477,12.87
		c0.087,0.273,0.409,0.322,0.654,0.314c4.539-0.155,10.277-1.469,12.792-5.606C106.01,52.073,102.115,50.136,98.591,51.373z
		 M91.877,61.008c-0.613-2.03-0.974-4.208-0.975-6.317c-0.001-1.737,0.198-3.687,1.15-5.187c2.858-4.5,5.554-0.293,4.976,2.851
		c-0.096,0.523,0.774,0.501,1.047,0.343c3.205-1.857,6.11,0.188,4.515,3.604C100.508,59.727,95.717,60.799,91.877,61.008z"/>
	<polygon style="fill:#B0C3CC;" points="73.793,85.39 119.762,124.493 119.762,48.802 116.966,51.027 	"/>
	<polygon style="fill:#B0C3CC;" points="50.7,85.39 10.852,53.674 4.731,48.802 4.731,124.493 	"/>
	<polygon style="fill:#CEE5F2;" points="73.793,85.39 62.247,75.567 50.7,85.39 4.731,124.493 62.247,124.493 119.762,124.493 	"/>
</g>
</svg>
